<?xml version="1.0" encoding="UTF-8"?>
<svg width="180" height="95" version="1.1" viewBox="0 0 47.625 25.135" xmlns="http://www.w3.org/2000/svg" xmlns:cc="http://creativecommons.org/ns#" xmlns:dc="http://purl.org/dc/elements/1.1/" xmlns:rdf="http://www.w3.org/1999/02/22-rdf-syntax-ns#">
<metadata>
<rdf:RDF>
<cc:Work rdf:about="">
<dc:format>image/svg+xml</dc:format>
<dc:type rdf:resource="http://purl.org/dc/dcmitype/StillImage"/>
<dc:title/>
</cc:Work>
</rdf:RDF>
</metadata>
<g transform="translate(-38.176 -170.66)" fill="none">
<path d="m84.667 42.333h26.458v26.458h-26.458v-26.458" stroke="#000" stroke-width=".26458px"/>
<path d="m87.312 63.5s1.6973-14.551-2.6458-34.396" stroke="#000" stroke-linecap="round" stroke-width="2.6458"/>
<path d="m87.312 58.208c12.896-4.4099 15.875-13.229 15.875-13.229" stroke="#000" stroke-linecap="round" stroke-width="2.6458"/>
<path d="m87.312 47.625c15.872 11.488 14.683 13.627 18.521 18.521" stroke="#000" stroke-linecap="round" stroke-width="2.6458"/>
<path d="m82.021 50.271c-15.875 2.6458-5.2917 15.781 2.6458 13.229" stroke="#000" stroke-linecap="round" stroke-width="2.6458"/>
<path d="m31.75 50.271c0 5.0082 5.2917 13.229 5.2917 13.229 1.9844 0 5.2917-7.9375 5.2917-13.229" stroke="#000" stroke-linecap="round" stroke-width="2.6458"/>
<path d="m50.271 50.271c-7.654 2.4568-5.0242 11.568-1e-6 13.229 0.80836 0.26727 1.8106 0.4009 2.6458 0 5.2917-2.6458 5.723-11.715 0-13.229-1.5768-0.45849-2.0316-0.14174-2.6458 0" stroke="#000" stroke-linecap="round" stroke-width="2.6458"/>
<path d="m60.854 39.687s-4.1105 23.718 5.2917 23.812" stroke="#000" stroke-linecap="round" stroke-width="2.6458"/>
<path d="m58.208 47.625c2.0316-0.47247 3.6853 0.61421 5.2917 0" stroke="#000" stroke-linecap="round" stroke-width="2.6458"/>
<path d="m68.792 50.271c2.6458 0 0 13.229 2.6458 13.229" stroke="#000" stroke-linecap="round" stroke-width="2.6458"/>
<path d="m37.042 85.99 7.9375 19.844 7.9375-19.844" stroke="#000" stroke-linecap="round" stroke-linejoin="round" stroke-width="2.6458"/>
<path d="m58.208 92.604c2.6458-1e-6 5.2917 2.6458 5.2917 5.2917v2.6458c0 2.6458-2.6458 5.2917-5.2917 5.2917s-5.2917-2.6458-5.2917-5.2917v-2.6458c0-2.6458 2.6458-5.2917 5.2917-5.2917z" stroke="#000" stroke-linecap="round" stroke-linejoin="round" stroke-width="2.6458"/>
<g transform="translate(-1.3229)" stroke="#000" stroke-linecap="round" stroke-linejoin="round" stroke-width="2.6458">
<path d="m66.146 92.604h10.583"/>
<path d="m71.438 92.604v13.229"/>
</g>
<g transform="translate(-2.6458)" stroke="#000">
<path d="m79.375 89.958s10.583 7.9375 15.875 18.521" stroke-linecap="round" stroke-linejoin="round" stroke-width="2.6458"/>
<path d="m82.021 92.604v13.229h10.583v-13.229h-10.583" stroke-linecap="square" stroke-width="1.3229"/>
<path d="m79.375 108.48c7.9375-5.2917 15.875-18.521 15.875-18.521" stroke-linecap="round" stroke-linejoin="round" stroke-width="2.6458"/>
</g>
<path d="m39.688 119.06 5.2917 19.844 5.2917-19.844" stroke="#000" stroke-linecap="round" stroke-linejoin="round" stroke-width="2.6458"/>
<path d="m56.885 125.68c2.6458 0 5.2917 2.6458 5.2917 5.2917v2.6458c0 2.6458-2.6458 5.2917-5.2917 5.2917s-5.2917-2.6458-5.2917-5.2917v-2.6458c0-2.6458 2.6458-5.2917 5.2917-5.2917z" stroke="#000" stroke-linecap="round" stroke-linejoin="round" stroke-width="2.6458"/>
<g transform="translate(-2.6458 31.75)" stroke="#000" stroke-linecap="round" stroke-linejoin="round" stroke-width="2.6458">
<path d="m67.469 93.927h5.2917"/>
<path d="m70.115 87.313 1e-6 15.875c-1e-6 2.6458 1.3229 3.9688 3.9688 3.9688"/>
</g>
<g transform="translate(-3.9687 31.75)" stroke="#000">
<path d="m79.375 89.958s10.583 7.9375 15.875 18.521" stroke-linecap="round" stroke-linejoin="round" stroke-width="2.6458"/>
<path d="m82.021 92.604v13.229h10.583v-13.229h-10.583" stroke-linecap="square" stroke-width=".66146"/>
<path d="m79.375 108.48c7.9375-5.2917 15.875-18.521 15.875-18.521" stroke-linecap="round" stroke-linejoin="round" stroke-width="2.6458"/>
</g>
<path d="m41.01 145.52 2.6458 19.844 7.9375-19.844" stroke="#feffff" stroke-linecap="round" stroke-linejoin="round" stroke-width="2.6458"/>
<path d="m54.651 155.77c3.9688 0 1.2757 9.5912-2.6931 9.5912s-1.2757-9.5912 2.6931-9.5912z" stroke="#feffff" stroke-linecap="round" stroke-linejoin="round" stroke-width="2.6458"/>
<g transform="translate(-18.521 59.531)" stroke="#feffff" stroke-linecap="round" stroke-linejoin="round" stroke-width="2.6458">
<path d="m79.375 92.604h6.6146"/>
<path d="m84.667 85.99-5.2917 14.552c-1.3229 5.2917 2.6458 6.6146 5.2917 3.9688"/>
</g>
<g transform="translate(-10.583 59.531)" stroke="#feffff">
<path d="m79.375 89.958s10.583 7.9375 15.875 18.521" stroke-linecap="round" stroke-linejoin="round" stroke-width="2.6458"/>
<path d="m82.021 92.604v13.229h10.583v-13.229h-10.583" stroke-linecap="square" stroke-width=".66146"/>
<path d="m79.375 108.48c7.9375-5.2917 15.875-18.521 15.875-18.521" stroke-linecap="round" stroke-linejoin="round" stroke-width="2.6458"/>
</g>
<path d="m39.499 171.98c0 13.229 3.9688 19.844 3.9688 19.844 1.3229-7.9375 7.9375-19.844 7.9375-19.844" stroke="#feffff" stroke-linecap="round" stroke-linejoin="round" stroke-width="2.6458" style="mix-blend-mode:normal"/>
<path d="m51.877 182.63c3.7683 0.28397 3.6638 9.2034-0.75595 9.2368-3.9688 0-3.2016-9.535 0.75595-9.2368z" stroke="#feffff" stroke-linecap="round" stroke-linejoin="round" stroke-width="2.6458"/>
<path d="m56.98 179.68s2.8223 1.1329 5.8232 0.44885" stroke="#feffff" stroke-linecap="round" stroke-linejoin="round" stroke-width="2.6458"/>
<path d="m61.043 176s-2.6931 4.9609-3.0238 10.536c-0.32301 5.445 2.6458 6.6146 5.2917 3.9688" stroke="#feffff" stroke-linecap="round" stroke-linejoin="round" stroke-width="2.6458"/>
<g transform="rotate(180 80.603 141.55)" stroke="#feffff" stroke-linecap="round" stroke-linejoin="round">
<path d="m76.729 88.635s11.906 10.583 17.198 21.167" stroke-width="2.6458"/>
<path d="m81.832 93.927v11.906h10.583v-11.906h-10.583" stroke-width="1.0583"/>
<path d="m79.375 108.48c7.9375-5.2917 14.363-18.521 14.363-18.521" stroke-width="2.6458"/>
</g>
</g>
</svg>
