<?xml version="1.0" encoding="UTF-8"?>
<svg width="47.625mm" height="25.135mm" version="1.1" viewBox="0 0 47.625 25.135" xmlns="http://www.w3.org/2000/svg" xmlns:cc="http://creativecommons.org/ns#" xmlns:dc="http://purl.org/dc/elements/1.1/" xmlns:rdf="http://www.w3.org/1999/02/22-rdf-syntax-ns#">
<metadata>
<rdf:RDF>
<cc:Work rdf:about="">
<dc:format>image/svg+xml</dc:format>
<dc:type rdf:resource="http://purl.org/dc/dcmitype/StillImage"/>
<dc:title/>
</cc:Work>
</rdf:RDF>
</metadata>
<g transform="translate(-53.295 -69.075)" fill="none" stroke="#feffff" stroke-linecap="round" stroke-linejoin="round">
<path d="m54.618 70.398c0 13.229 3.9688 19.844 3.9688 19.844 1.3229-7.9375 7.9375-19.844 7.9375-19.844" stroke-width="2.6458" style="mix-blend-mode:normal"/>
<path d="m66.996 81.052c3.7683 0.28397 3.6638 9.2034-0.75595 9.2368-3.9688 0-3.2016-9.535 0.75595-9.2368z" stroke-width="2.6458"/>
<path d="m72.099 78.099s2.8223 1.1329 5.8232 0.44885" stroke-width="2.6458"/>
<path d="m76.162 74.414s-2.6931 4.9609-3.0238 10.536c-0.32301 5.445 2.6458 6.6146 5.2917 3.9688" stroke-width="2.6458"/>
<path d="m99.597 92.888s-11.906-10.583-17.198-21.167" stroke-width="2.6458"/>
<path d="m94.494 87.596v-11.906h-10.583v11.906h10.583" stroke-width="1.0583"/>
<path d="m96.951 73.044c-7.9375 5.2917-14.363 18.521-14.363 18.521" stroke-width="2.6458"/>
</g>
</svg>
